# xmcd CD database file generated by OrangeCD 6.5
#
# Track frame offsets:
#	150
#	19883
#	38185
#	55363
#	71340
#	88463
#	103813
#	119040
#	144110
#	167130
#	185490
#	202530
#
# Disc length: 2991 seconds
#
# Revision: 14
# Processed by: cddbd v1.5.2PL0 Copyright (c) Steve Scherf et al.
# Submitted via: OrangeCD 6.5
#
DISCID=a90bad0c
DTITLE=Mary-Chapin Carpenter - Come On Come On
DYEAR=1992
DGENRE=Country-influenced Rock
TTITLE0=The Hard Way
TTITLE1=He Thinks He'll Keep Her
TTITLE2=Rhythm Of The Blues
TTITLE3=I Feel Lucky
TTITLE4=The Bug
TTITLE5=Not Too Much To Ask [with Joe Diffie]
TTITLE6=Passionate Kisses
TTITLE7=Only A Dream
TTITLE8=I Am A Town
TTITLE9=Walking Through Fire
TTITLE10=I Take My Chances
TTITLE11=Come On Come On
EXTD=
EXTT0=
EXTT1=
EXTT2=
EXTT3=
EXTT4=
EXTT5=(Duet With Joe Diffie)
EXTT6=
EXTT7=
EXTT8=
EXTT9=
EXTT10=
EXTT11=
PLAYORDER=
